HIERARCHY
ROOT root
{
	OFFSET	0	13.1	24.9
	CHANNELS 6  Xposition Yposition Zposition Xrotation Yrotation Zrotation
	JOINT spine_1
	{
		OFFSET	0	9.99999	0
		CHANNELS 3  Xrotation Yrotation Zrotation
		JOINT spine_2
		{
			OFFSET	0	112	-10
			CHANNELS 3  Xrotation Yrotation Zrotation
			JOINT spine_3
			{
				OFFSET	0	206.5	19.3
				CHANNELS 3  Xrotation Yrotation Zrotation
				JOINT spine_4
				{
					OFFSET	0	110.4	14.6
					CHANNELS 3  Xrotation Yrotation Zrotation
					JOINT neck_1
					{
						OFFSET	0	71.8	-50.3
						CHANNELS 3  Xrotation Yrotation Zrotation
						JOINT neck_2
						{
							OFFSET	0	86.2	-25.8
							CHANNELS 3  Xrotation Yrotation Zrotation
							JOINT head_ee
							{
								OFFSET	0	179.8	-8.7
								CHANNELS 3  Xrotation Yrotation Zrotation
								End Site
								{
									OFFSET	1	0	0
								}
							}
						}
					}
					JOINT left_clavicle
					{
						OFFSET	-43.2	22.4	-70.8
						CHANNELS 3  Xrotation Yrotation Zrotation
						JOINT left_shoulder
						{
							OFFSET	-93.9	-5.79999	48.7
							CHANNELS 3  Xrotation Yrotation Zrotation
							JOINT left_elbow
							{
								OFFSET	-291.4	-30.8	15.2
								CHANNELS 3  Xrotation Yrotation Zrotation
								JOINT left_lowarm_twist
								{
									OFFSET	-110.7	-3.89999	13.6
									CHANNELS 3  Xrotation Yrotation Zrotation
									JOINT left_hand
									{
										OFFSET	-110.7	-3.89999	13.6
										CHANNELS 3  Xrotation Yrotation Zrotation
										JOINT left_ee
										{
											OFFSET	-80.8	-5.10001	12.1
											CHANNELS 3  Xrotation Yrotation Zrotation
											End Site
											{
												OFFSET	1	0	0
											}
										}
									}
								}
							}
						}
					}
					JOINT right_clavicle
					{
						OFFSET	43.2	22.4	-70.8
						CHANNELS 3  Xrotation Yrotation Zrotation
						JOINT right_shoulder
						{
							OFFSET	93.9	-5.79999	48.7
							CHANNELS 3  Xrotation Yrotation Zrotation
							JOINT right_elbow
							{
								OFFSET	291.4	-30.8	15.2
								CHANNELS 3  Xrotation Yrotation Zrotation
								JOINT right_lowarm_twist
								{
									OFFSET	110.7	-3.89999	13.6
									CHANNELS 3  Xrotation Yrotation Zrotation
									JOINT right_hand
									{
										OFFSET	110.7	-3.89999	13.6
										CHANNELS 3  Xrotation Yrotation Zrotation
										JOINT right_ee
										{
											OFFSET	80.8	-5.10001	12.1
											CHANNELS 3  Xrotation Yrotation Zrotation
											End Site
											{
												OFFSET	1	0	0
											}
										}
									}
								}
							}
						}
					}
				}
			}
		}
	}
	JOINT left_hip
	{
		OFFSET	-82.8	-127.5	0.300001
		CHANNELS 3  Xrotation Yrotation Zrotation
		JOINT left_knee
		{
			OFFSET	-28.2	-396.7	2.2
			CHANNELS 3  Xrotation Yrotation Zrotation
			JOINT left_ankle
			{
				OFFSET	-11.7	-411.3	35.4
				CHANNELS 3  Xrotation Yrotation Zrotation
				JOINT left_toes
				{
					OFFSET	0	-60	-88.6
					CHANNELS 3  Xrotation Yrotation Zrotation
					JOINT left_foot_ee
					{
						OFFSET	-22.5	-16.5	-42.2
						CHANNELS 3  Xrotation Yrotation Zrotation
						End Site
						{
							OFFSET	1	0	0
						}
					}
				}
			}
		}
	}
	JOINT right_hip
	{
		OFFSET	82.8	-127.5	0.300001
		CHANNELS 3  Xrotation Yrotation Zrotation
		JOINT right_knee
		{
			OFFSET	28.2	-396.7	2.2
			CHANNELS 3  Xrotation Yrotation Zrotation
			JOINT right_ankle
			{
				OFFSET	11.7	-411.3	35.4
				CHANNELS 3  Xrotation Yrotation Zrotation
				JOINT right_toes
				{
					OFFSET	0	-60	-88.6
					CHANNELS 3  Xrotation Yrotation Zrotation
					JOINT right_foot_ee
					{
						OFFSET	22.5	-16.5	-42.2
						CHANNELS 3  Xrotation Yrotation Zrotation
						End Site
						{
							OFFSET	1	0	0
						}
					}
				}
			}
		}
	}
}
MOTION
Frames: 16
Frame Time: 0.02
1095.38557068 732.106 -1811.11221791 -17.3063135032 37.3148442113 5.62048378624 4.10021 0.478102 2.64068 4.10404 0.309161 2.66573 4.11609 -0.065556 2.68278 4.10623 0.358809 2.6595 -4.20394 14.2056 1.26764 -4.01516 25.0859 3.58432 -0.0 0.0 -0.0 -4.15298 19.062 -4.00433 -32.0122 -34.8899 59.1403 1.16693 -30.0295 0.313009 4.91435 0.147042 -0.610313 -0.175411 7.92299 2.15874 -0.0 0.0 -0.0 9.42591 5.43434 -18.6049 -5.08714 25.9627 -66.4257 1.36505 34.0651 -0.418204 -7.2406 0.31067 -0.871321 -0.849653 -2.93377 4.39583 0.0 0.0 0.0 31.8783 7.51093 -6.57094 -59.2557 -2.12015 8.44293 4.67722 23.8891 -0.702272 4.45953 -0.0 -0.0 -0.0 0.0 -0.0 25.8781 5.61556 0.373453 -20.554 -0.288642 -3.12407 36.8953 -7.42957 4.58177 -22.8742 0.0 0.0 0.0 0.0 0.0 
1073.63565027 746.593 -1820.93553505 -17.5780859354 37.6573307434 6.35944357014 4.27996 0.505619 2.75478 4.28412 0.329371 2.78134 4.29736 -0.052784 2.80026 4.28663 0.389954 2.7735 -4.32826 14.0912 1.41536 -4.15264 24.784 3.74281 -0.0 0.0 -0.0 -4.37398 19.1473 -4.31942 -32.3753 -35.1362 60.4698 1.11622 -28.9391 0.288049 4.93694 0.147597 -0.613145 -0.165569 7.82472 2.18178 -0.0 0.0 -0.0 9.62144 5.2865 -19.0189 -3.69217 26.1077 -66.7869 1.4662 35.9891 -0.476266 -7.79941 0.339194 -0.936849 -0.825422 -1.93249 4.6738 0.0 0.0 0.0 34.1819 9.35636 -8.59603 -58.0644 -1.99465 8.30876 3.741 22.5469 -0.559546 3.98101 -0.0 -0.0 -0.0 0.0 -0.0 23.8638 3.64343 0.214494 -20.5868 -0.288202 -3.12909 39.1283 -6.42316 4.78287 -22.8624 0.0 0.0 0.0 0.0 0.0 
1055.09259489 739.557 -1830.7648279 -18.1296973855 38.5275512566 7.14177988113 4.29192 0.531199 2.65672 4.29577 0.361131 2.6851 4.31014 -0.00755668 2.70925 4.30014 0.420258 2.67649 -4.42529 13.9897 1.47684 -4.25917 24.5664 3.80879 -0.0 0.0 -0.0 -4.77208 19.325 -4.87971 -33.684 -35.1434 61.1997 1.0673 -27.8651 0.264781 4.94522 0.1478 -0.614184 -0.157651 7.75651 2.20485 -0.0 0.0 -0.0 9.9729 5.22995 -19.7675 -1.84202 26.4322 -66.9607 1.56633 37.8057 -0.536391 -8.25995 0.363181 -0.990644 -0.815426 -0.986822 5.02134 0.0 0.0 0.0 37.241 10.8589 -9.70857 -57.0902 -1.89411 8.19712 3.19847 21.3252 -0.47658 3.64729 -0.0 -0.0 -0.0 0.0 -0.0 22.4749 1.94319 0.114609 -20.6022 -0.287994 -3.13144 40.5818 -5.73375 4.90831 -22.8443 0.0 0.0 0.0 0.0 0.0 
1019.18815128 730.672 -1830.63036327 -18.002795235 40.700683409 8.0971897571 4.33261 0.560776 2.5844 4.33624 0.395245 2.61482 4.35183 0.0377689 2.64423 4.34236 0.454758 2.60513 -4.49808 13.9214 1.52474 -4.33869 24.4163 3.86111 -0.0 0.0 -0.0 -5.20009 19.5704 -5.46553 -34.766 -35.1169 61.8042 1.03381 -27.1172 0.24932 4.9839 0.148746 -0.619035 -0.136282 7.71133 2.32477 -0.0 0.0 -0.0 10.3191 5.25101 -20.5097 0.216068 26.9738 -66.618 1.67135 39.6195 -0.602083 -8.58405 0.380322 -1.02839 -0.805728 -0.248273 5.27968 0.0 0.0 0.0 40.757 11.412 -11.2563 -55.8166 -1.76559 8.04868 2.83055 20.465 -0.420734 3.39857 -0.0 -0.0 -0.0 0.0 -0.0 19.8607 0.965727 1.298 -20.659 -0.287223 -3.14012 41.1154 -5.28522 4.95311 -22.851 0.0 0.0 0.0 0.0 0.0 
1003.8785507 727.558 -1836.56398725 -18.2927116657 41.2612801782 8.28648426848 4.39823 0.381037 2.71843 4.40232 0.20735 2.73714 4.40939 -0.162417 2.74018 4.39902 0.272216 2.73146 -4.1037 13.724 2.69166 -3.93599 23.1021 4.9496 -0.0 0.0 -0.0 -5.39017 19.7212 -5.71333 -34.5645 -35.5377 63.6089 0.928723 -24.705 0.20339 5.26832 0.155603 -0.654719 -0.130776 8.44559 2.66395 -0.0 0.0 -0.0 10.5566 5.26853 -21.0215 1.30046 27.2745 -65.8996 1.96652 44.2451 -0.799487 -9.56709 0.433618 -1.14227 -0.915617 2.10976 7.053 0.0 0.0 0.0 44.5102 11.1022 -12.678 -51.2625 -1.33389 7.49563 0.336348 18.0275 -0.0498846 1.55867 -0.0 -0.0 -0.0 0.0 -0.0 17.1319 -0.78667 1.37478 -12.9496 -0.313005 -1.95843 39.7705 -2.15542 4.84378 -24.6565 0.0 0.0 0.0 0.0 0.0 
986.407884026 726.274 -1839.69814555 -18.9341754344 40.8163908827 8.55074770981 4.4786 0.250994 2.74902 4.4828 0.0756261 2.75941 4.48345 -0.292542 2.74492 4.47296 0.144468 2.75667 -3.82032 13.5942 3.50495 -3.64426 22.1896 5.71535 -0.0 0.0 -0.0 -5.48567 19.6028 -5.88963 -34.2397 -35.8516 64.9081 0.857773 -23.0212 0.174684 5.47741 0.160531 -0.680975 -0.121441 8.99208 2.94939 -0.0 0.0 -0.0 10.7285 5.28243 -21.3932 2.01871 27.4805 -65.4303 2.19984 47.4526 -0.966962 -10.3135 0.475391 -1.22814 -1.00468 3.74993 8.37713 0.0 0.0 0.0 47.1032 10.6772 -13.4949 -47.5502 -1.01556 7.02096 -1.3742 16.2613 0.203621 0.31089 -0.0 -0.0 -0.0 0.0 -0.0 15.1739 -1.99877 1.32333 -7.60496 -0.237604 -1.1421 38.9368 0.176392 4.78466 -25.8822 0.0 0.0 0.0 0.0 0.0 
958.794059987 726.586 -1842.66895393 -18.6630331544 40.8745808435 9.35871934921 4.46852 0.388966 2.29338 4.47142 0.242284 2.31347 4.47914 -0.0679592 2.32513 4.47172 0.300004 2.3067 -1.47841 14.2875 3.30616 -1.16915 23.1404 5.22292 -0.0 0.0 -0.0 -6.18688 19.0982 -7.10309 -32.5546 -37.4419 69.5445 0.861541 -23.1117 0.17616 5.12295 0.152121 -0.636476 -0.169708 9.94169 3.02949 -0.0 0.0 -0.0 10.9925 6.17008 -21.9877 1.72469 26.6879 -64.5959 2.29819 48.6977 -1.04014 -12.0243 0.575339 -1.42286 -1.0746 5.92375 9.80738 0.0 0.0 0.0 44.2585 8.98815 -11.7597 -31.5092 -0.0166947 4.77508 -6.48234 18.8395 0.976749 -3.12656 0.0 0.0 -0.0 0.0 -0.0 12.6865 -1.09816 1.13463 -7.15633 -0.227816 -1.07395 40.1119 2.37089 4.90714 -24.8616 0.0 0.0 0.0 0.0 0.0 
933.406222571 736.065 -1846.68421298 -19.3523484051 40.8680145477 10.8378673295 4.55508 0.335504 2.02944 4.55735 0.205713 2.04667 4.56302 -0.0656734 2.05593 4.55722 0.259777 2.04051 -2.73241 15.2022 5.02253 -2.45172 23.7317 7.33229 -0.0 0.0 -0.0 -6.54089 18.1843 -7.92354 -30.5125 -38.4391 72.5362 0.864951 -23.1935 0.177501 5.0448 0.150229 -0.626673 -0.138956 10.8709 3.60709 -0.0 0.0 -0.0 10.8019 6.91815 -21.585 1.5002 25.9849 -63.9688 2.36661 49.5289 -1.09187 -13.2457 0.650244 -1.56004 -0.986185 7.43311 9.85997 0.0 0.0 0.0 41.885 7.32854 -11.1508 -20.2614 0.292439 3.07935 -7.07939 18.8057 1.06762 -5.26636 0.0 0.0 -0.0 0.0 -0.0 10.9114 1.33149 1.95566 -7.50262 -0.235418 -1.12654 39.762 4.66488 4.90613 -22.8162 0.0 0.0 0.0 0.0 0.0 
928.597981063 736.065 -1840.93072161 -19.5705069459 41.5727297318 11.1689270031 4.55508 0.335504 2.02944 4.55735 0.205713 2.04667 4.56302 -0.0656734 2.05593 4.55722 0.259777 2.04051 -2.73241 15.2022 5.02253 -2.45172 23.7317 7.33229 -0.0 0.0 -0.0 -6.54089 18.1843 -7.92354 -30.5125 -38.4391 72.5362 0.864951 -23.1935 0.177501 5.0448 0.150229 -0.626673 -0.138956 10.8709 3.60709 -0.0 0.0 -0.0 10.8019 6.91815 -21.585 1.5002 25.9849 -63.9688 2.36661 49.5289 -1.09187 -13.2457 0.650244 -1.56004 -0.986185 7.43311 9.85997 0.0 0.0 0.0 41.885 7.32854 -11.1508 -20.2614 0.292439 3.07935 -7.07939 18.8057 1.06762 -5.26636 0.0 0.0 -0.0 0.0 -0.0 10.9114 1.33149 1.95566 -7.50262 -0.235418 -1.12654 39.762 4.66488 4.90613 -22.8162 0.0 0.0 0.0 0.0 0.0 
922.606488736 736.065 -1833.54185976 -19.8587241615 42.4653960925 11.5994876114 4.55508 0.335504 2.02944 4.55735 0.205713 2.04667 4.56302 -0.0656734 2.05593 4.55722 0.259777 2.04051 -2.73241 15.2022 5.02253 -2.45172 23.7317 7.33229 -0.0 0.0 -0.0 -6.54089 18.1843 -7.92354 -30.5125 -38.4391 72.5362 0.864951 -23.1935 0.177501 5.0448 0.150229 -0.626673 -0.138956 10.8709 3.60709 -0.0 0.0 -0.0 10.8019 6.91815 -21.585 1.5002 25.9849 -63.9688 2.36661 49.5289 -1.09187 -13.2457 0.650244 -1.56004 -0.986185 7.43311 9.85997 0.0 0.0 0.0 41.885 7.32854 -11.1508 -20.2614 0.292439 3.07935 -7.07939 18.8057 1.06762 -5.26636 0.0 0.0 -0.0 0.0 -0.0 10.9114 1.33149 1.95566 -7.50262 -0.235418 -1.12654 39.762 4.66488 4.90613 -22.8162 0.0 0.0 0.0 0.0 0.0 
915.698504994 736.065 -1824.70152742 -20.2159438296 43.5160603339 12.1233383203 4.55508 0.335504 2.02944 4.55735 0.205713 2.04667 4.56302 -0.0656734 2.05593 4.55722 0.259777 2.04051 -2.73241 15.2022 5.02253 -2.45172 23.7317 7.33229 -0.0 0.0 -0.0 -6.54089 18.1843 -7.92354 -30.5125 -38.4391 72.5362 0.864951 -23.1935 0.177501 5.0448 0.150229 -0.626673 -0.138956 10.8709 3.60709 -0.0 0.0 -0.0 10.8019 6.91815 -21.585 1.5002 25.9849 -63.9688 2.36661 49.5289 -1.09187 -13.2457 0.650244 -1.56004 -0.986185 7.43311 9.85997 0.0 0.0 0.0 41.885 7.32854 -11.1508 -20.2614 0.292439 3.07935 -7.07939 18.8057 1.06762 -5.26636 0.0 0.0 -0.0 0.0 -0.0 10.9114 1.33149 1.95566 -7.50262 -0.235418 -1.12654 39.762 4.66488 4.90613 -22.8162 0.0 0.0 0.0 0.0 0.0 
900.921257631 734.63 -1836.545825 -21.7225713308 43.9634319209 13.224270547 4.69258 0.300142 1.85883 4.69449 0.181273 1.87416 4.69894 -0.0627184 1.88186 4.69408 0.23522 1.86815 -3.18606 15.9188 6.09017 -2.89392 24.3253 8.60586 -0.0 0.0 -0.0 -6.75652 17.4385 -8.49028 -29.0209 -39.1655 74.7435 0.852854 -22.9028 0.172765 3.44428 0.108557 -0.426475 0.0503461 11.6618 5.13362 -0.0 0.0 -0.0 10.7308 8.18506 -21.4418 1.29461 25.4912 -63.5226 2.3728 49.6028 -1.09658 -14.9385 0.75887 -1.74747 -0.934958 8.15521 9.82217 0.0 0.0 0.0 39.2515 6.36476 -10.219 -10.0394 0.281394 1.51306 -4.88474 15.8376 0.72812 -7.38577 0.0 0.0 -0.0 0.0 -0.0 10.5818 3.21418 2.61194 -10.0853 -0.282069 -1.52008 38.5885 7.33765 4.84707 -20.444 0.0 0.0 0.0 0.0 0.0 
896.624734271 734.63 -1830.87356797 -21.9717878001 44.6008021182 13.5812099664 4.69258 0.300142 1.85883 4.69449 0.181273 1.87416 4.69894 -0.0627184 1.88186 4.69408 0.23522 1.86815 -3.18606 15.9188 6.09017 -2.89392 24.3253 8.60586 -0.0 0.0 -0.0 -6.75652 17.4385 -8.49028 -29.0209 -39.1655 74.7435 0.852854 -22.9028 0.172765 3.44428 0.108557 -0.426475 0.0503461 11.6618 5.13362 -0.0 0.0 -0.0 10.7308 8.18506 -21.4418 1.29461 25.4912 -63.5226 2.3728 49.6028 -1.09658 -14.9385 0.75887 -1.74747 -0.934958 8.15521 9.82217 0.0 0.0 0.0 39.2515 6.36476 -10.219 -10.0394 0.281394 1.51306 -4.88474 15.8376 0.72812 -7.38577 0.0 0.0 -0.0 0.0 -0.0 10.5818 3.21418 2.61194 -10.0853 -0.282069 -1.52008 38.5885 7.33765 4.84707 -20.444 0.0 0.0 0.0 0.0 0.0 
890.492902888 734.63 -1822.52592555 -22.3496705685 45.526516666 14.1150047849 4.69258 0.300142 1.85883 4.69449 0.181273 1.87416 4.69894 -0.0627184 1.88186 4.69408 0.23522 1.86815 -3.18606 15.9188 6.09017 -2.89392 24.3253 8.60586 -0.0 0.0 -0.0 -6.75652 17.4385 -8.49028 -29.0209 -39.1655 74.7435 0.852854 -22.9028 0.172765 3.44428 0.108557 -0.426475 0.0503461 11.6618 5.13362 -0.0 0.0 -0.0 10.7308 8.18506 -21.4418 1.29461 25.4912 -63.5226 2.3728 49.6028 -1.09658 -14.9385 0.75887 -1.74747 -0.934958 8.15521 9.82217 0.0 0.0 0.0 39.2515 6.36476 -10.219 -10.0394 0.281394 1.51306 -4.88474 15.8376 0.72812 -7.38577 0.0 0.0 -0.0 0.0 -0.0 10.5818 3.21418 2.61194 -10.0853 -0.282069 -1.52008 38.5885 7.33765 4.84707 -20.444 0.0 0.0 0.0 0.0 0.0 
862.935294428 725.71 -1831.20698385 -22.0064588026 46.0076096938 13.4812720536 4.75154 0.287128 1.788 4.7533 0.17279 1.80264 4.75734 -0.0600326 1.8099 4.75284 0.226514 1.79668 -3.3616 16.5393 5.54609 -3.06014 25.9347 8.1629 -0.0 0.0 -0.0 -7.01119 16.9244 -9.05835 -28.8604 -39.6272 76.0919 0.786154 -21.2777 0.147679 2.50395 0.0814692 -0.309415 0.236503 12.3013 6.57127 -0.0 0.0 -0.0 10.672 9.7011 -21.3126 1.17168 25.373 -62.4176 2.4246 50.212 -1.13621 -16.6545 0.874611 -1.93417 -0.743157 8.67646 8.73526 0.0 0.0 0.0 38.2558 5.88373 -9.04866 -0.99823 0.0398139 0.148016 -3.31323 12.2355 0.489437 -8.90422 0.0 0.0 -0.0 0.0 -0.0 8.62824 6.53402 3.30203 -12.751 -0.311568 -1.92799 37.497 11.6517 4.84257 -18.3272 0.0 0.0 0.0 0.0 0.0 
861.836640561 725.71 -1829.63055846 -22.0755432268 46.1718773327 13.5771656665 4.75154 0.287128 1.788 4.7533 0.17279 1.80264 4.75734 -0.0600326 1.8099 4.75284 0.226514 1.79668 -3.3616 16.5393 5.54609 -3.06014 25.9347 8.1629 -0.0 0.0 -0.0 -7.01119 16.9244 -9.05835 -28.8604 -39.6272 76.0919 0.786154 -21.2777 0.147679 2.50395 0.0814692 -0.309415 0.236503 12.3013 6.57127 -0.0 0.0 -0.0 10.672 9.7011 -21.3126 1.17168 25.373 -62.4176 2.4246 50.212 -1.13621 -16.6545 0.874611 -1.93417 -0.743157 8.67646 8.73526 0.0 0.0 0.0 38.2558 5.88373 -9.04866 -0.99823 0.0398139 0.148016 -3.31323 12.2355 0.489437 -8.90422 0.0 0.0 -0.0 0.0 -0.0 8.62824 6.53402 3.30203 -12.751 -0.311568 -1.92799 37.497 11.6517 4.84257 -18.3272 0.0 0.0 0.0 0.0 0.0 
